# xmcd CD database file
#
# Track frame offsets:
#	150
#	32478
#	55294
#	84197
#	108804
#	140945
#	164407
#	192297
#	215358
#
# Disc length: 3196 seconds
#
# Revision: 0
# Processed by: cddbd v1.5.2PL0 Copyright (c) Steve Scherf et al.
# Submitted via: CDex 1.82
#
DISCID=760c7a09
DTITLE=Francesco Guaiana Quartet - Unsaid Songs
DYEAR=2014
DGENRE=Jazz
TTITLE0=Beyond the Bridge
TTITLE1=Falling Grace
TTITLE2=Girotondo
TTITLE3=Genge
TTITLE4=L'ovosodo
TTITLE5=Insonne
TTITLE6=Lucida Follia
TTITLE7=L'ordlo Del Mare
TTITLE8=L'andazzo Del Pezzo
EXTD=YEAR: 2014
EXTT0=
EXTT1=
EXTT2=
EXTT3=
EXTT4=
EXTT5=
EXTT6=
EXTT7=
EXTT8=
PLAYORDER=
